<svg width="166" height="58" viewBox="0 0 166 58" fill="none" xmlns="http://www.w3.org/2000/svg">
<path d="M5 18.5H13.5H22" stroke="#181818"/>
<path d="M5 27.5H22" stroke="#181818"/>
<path d="M5 36.5H22" stroke="#181818"/>
<path d="M30.2827 36.5L35.4547 30.188L30.9667 24.212H32.4187L36.3067 29.312L40.2067 24.212H41.6467L37.1587 30.188L42.3307 36.5H40.8427L36.3067 30.944L31.7707 36.5H30.2827ZM52.1594 36.884C51.2394 36.884 50.3754 36.724 49.5674 36.404C48.7674 36.076 48.0674 35.62 47.4674 35.036C46.8674 34.452 46.3954 33.764 46.0514 32.972C45.7154 32.172 45.5474 31.3 45.5474 30.356C45.5474 29.412 45.7154 28.544 46.0514 27.752C46.3874 26.96 46.8554 26.272 47.4554 25.688C48.0554 25.096 48.7554 24.64 49.5554 24.32C50.3554 23.992 51.2234 23.828 52.1594 23.828C52.9674 23.828 53.7354 23.952 54.4634 24.2C55.1914 24.448 55.8274 24.788 56.3714 25.22L55.7954 26.084C54.8194 25.316 53.6434 24.932 52.2674 24.932C51.2034 24.932 50.2594 25.168 49.4354 25.64C48.6194 26.112 47.9794 26.76 47.5154 27.584C47.0514 28.4 46.8194 29.324 46.8194 30.356C46.8194 31.388 47.0514 32.316 47.5154 33.14C47.9794 33.956 48.6234 34.6 49.4474 35.072C50.2714 35.544 51.2194 35.78 52.2914 35.78C52.9554 35.78 53.5834 35.684 54.1754 35.492C54.7754 35.292 55.3074 35.004 55.7714 34.628L56.3714 35.492C55.8194 35.924 55.1834 36.264 54.4634 36.512C53.7434 36.76 52.9754 36.884 52.1594 36.884ZM66.6087 36.884C65.3207 36.884 64.1767 36.6 63.1767 36.032C62.1767 35.456 61.3927 34.684 60.8247 33.716C60.2567 32.74 59.9727 31.644 59.9727 30.428C59.9727 29.5 60.1367 28.636 60.4647 27.836C60.8007 27.036 61.2607 26.336 61.8447 25.736C62.4367 25.136 63.1167 24.668 63.8847 24.332C64.6607 23.996 65.4847 23.828 66.3567 23.828C67.5167 23.828 68.5647 24.096 69.5007 24.632C70.4447 25.16 71.2007 25.892 71.7687 26.828C72.3447 27.764 72.6607 28.832 72.7167 30.032C72.7167 30.112 72.7167 30.184 72.7167 30.248C72.7167 30.304 72.7127 30.372 72.7047 30.452H61.2207C61.2207 31.484 61.4527 32.404 61.9167 33.212C62.3807 34.02 63.0207 34.656 63.8367 35.12C64.6607 35.576 65.5967 35.804 66.6447 35.804C67.6447 35.804 68.5447 35.592 69.3447 35.168C70.1527 34.744 70.8047 34.144 71.3007 33.368L72.2607 33.908C71.6767 34.852 70.8887 35.584 69.8967 36.104C68.9127 36.624 67.8167 36.884 66.6087 36.884ZM61.2807 29.444H71.4447C71.3407 28.572 71.0527 27.796 70.5807 27.116C70.1087 26.436 69.5087 25.9 68.7807 25.508C68.0527 25.108 67.2527 24.908 66.3807 24.908C65.4927 24.908 64.6807 25.104 63.9447 25.496C63.2167 25.888 62.6167 26.428 62.1447 27.116C61.6727 27.796 61.3847 28.572 61.2807 29.444ZM77.4663 36.5V15.86H78.7383V36.5H77.4663ZM84.5905 36.5V24.212H85.8625V36.5H84.5905ZM85.2265 21.776C85.0665 21.776 84.9185 21.736 84.7825 21.656C84.6465 21.576 84.5385 21.468 84.4585 21.332C84.3785 21.196 84.3385 21.048 84.3385 20.888C84.3385 20.72 84.3785 20.572 84.4585 20.444C84.5385 20.308 84.6465 20.2 84.7825 20.12C84.9185 20.04 85.0665 20 85.2265 20C85.3945 20 85.5425 20.04 85.6705 20.12C85.8065 20.2 85.9145 20.308 85.9945 20.444C86.0745 20.572 86.1145 20.716 86.1145 20.876C86.1145 21.044 86.0745 21.196 85.9945 21.332C85.9145 21.468 85.8065 21.576 85.6705 21.656C85.5425 21.736 85.3945 21.776 85.2265 21.776ZM91.7388 36.5V24.212H93.0108V25.964C93.3148 25.38 93.8148 24.88 94.5108 24.464C95.2148 24.04 96.0948 23.828 97.1508 23.828C98.1028 23.828 98.9188 24.024 99.5988 24.416C100.279 24.8 100.799 25.368 101.159 26.12C101.519 26.864 101.699 27.776 101.699 28.856V36.5H100.427V29.084C100.427 27.724 100.111 26.688 99.4788 25.976C98.8548 25.256 97.9708 24.896 96.8268 24.896C96.0268 24.896 95.3428 25.056 94.7748 25.376C94.2068 25.696 93.7708 26.116 93.4668 26.636C93.1628 27.156 93.0108 27.712 93.0108 28.304V36.5H91.7388ZM110.327 36.884C109.319 36.884 108.431 36.62 107.663 36.092C106.903 35.556 106.323 34.8 105.923 33.824L106.691 33.188C107.043 34.028 107.535 34.684 108.167 35.156C108.807 35.628 109.523 35.864 110.315 35.864C110.867 35.864 111.379 35.748 111.851 35.516C112.323 35.276 112.699 34.94 112.979 34.508C113.259 34.076 113.399 33.56 113.399 32.96C113.399 32.424 113.275 32.008 113.027 31.712C112.779 31.408 112.415 31.148 111.935 30.932C111.455 30.716 110.875 30.476 110.195 30.212C109.667 30.004 109.151 29.772 108.647 29.516C108.151 29.252 107.739 28.92 107.411 28.52C107.091 28.112 106.931 27.596 106.931 26.972C106.931 26.372 107.087 25.836 107.399 25.364C107.719 24.892 108.155 24.52 108.707 24.248C109.267 23.968 109.895 23.828 110.591 23.828C111.295 23.828 111.939 23.992 112.523 24.32C113.115 24.64 113.619 25.096 114.035 25.688L113.339 26.372C112.683 25.332 111.767 24.812 110.591 24.812C109.863 24.812 109.271 25.008 108.815 25.4C108.359 25.792 108.131 26.3 108.131 26.924C108.131 27.372 108.259 27.74 108.515 28.028C108.779 28.308 109.127 28.548 109.559 28.748C109.991 28.948 110.467 29.148 110.987 29.348C111.731 29.628 112.375 29.904 112.919 30.176C113.471 30.448 113.895 30.796 114.191 31.22C114.495 31.636 114.647 32.204 114.647 32.924C114.647 33.724 114.459 34.424 114.083 35.024C113.715 35.616 113.203 36.076 112.547 36.404C111.899 36.724 111.159 36.884 110.327 36.884ZM119.476 36.5V24.212H120.748V36.5H119.476ZM120.112 21.776C119.952 21.776 119.804 21.736 119.668 21.656C119.532 21.576 119.424 21.468 119.344 21.332C119.264 21.196 119.224 21.048 119.224 20.888C119.224 20.72 119.264 20.572 119.344 20.444C119.424 20.308 119.532 20.2 119.668 20.12C119.804 20.04 119.952 20 120.112 20C120.28 20 120.428 20.04 120.556 20.12C120.692 20.2 120.8 20.308 120.88 20.444C120.96 20.572 121 20.716 121 20.876C121 21.044 120.96 21.196 120.88 21.332C120.8 21.468 120.692 21.576 120.556 21.656C120.428 21.736 120.28 21.776 120.112 21.776ZM131.916 43.1C130.388 43.1 129.096 42.792 128.04 42.176C126.984 41.568 126.192 40.684 125.664 39.524L126.768 39.044C127.16 39.948 127.816 40.672 128.736 41.216C129.664 41.76 130.728 42.032 131.928 42.032C132.92 42.032 133.812 41.832 134.604 41.432C135.404 41.04 136.032 40.468 136.488 39.716C136.952 38.964 137.184 38.052 137.184 36.98V33.656C136.672 34.664 135.948 35.456 135.012 36.032C134.084 36.6 133.048 36.884 131.904 36.884C130.744 36.884 129.7 36.604 128.772 36.044C127.852 35.476 127.12 34.7 126.576 33.716C126.04 32.732 125.772 31.612 125.772 30.356C125.772 29.092 126.04 27.972 126.576 26.996C127.112 26.012 127.844 25.24 128.772 24.68C129.7 24.112 130.748 23.828 131.916 23.828C133.068 23.828 134.108 24.112 135.036 24.68C135.964 25.248 136.68 26.032 137.184 27.032V24.212H138.456V36.836C138.456 38.228 138.184 39.388 137.64 40.316C137.096 41.244 136.332 41.94 135.348 42.404C134.372 42.868 133.228 43.1 131.916 43.1ZM132.156 35.756C133.148 35.756 134.028 35.528 134.796 35.072C135.564 34.608 136.164 33.968 136.596 33.152C137.036 32.336 137.256 31.404 137.256 30.356C137.256 29.308 137.036 28.376 136.596 27.56C136.164 26.744 135.564 26.108 134.796 25.652C134.028 25.188 133.148 24.956 132.156 24.956C131.172 24.956 130.296 25.188 129.528 25.652C128.76 26.108 128.156 26.744 127.716 27.56C127.284 28.376 127.068 29.308 127.068 30.356C127.068 31.404 127.284 32.336 127.716 33.152C128.156 33.96 128.76 34.596 129.528 35.06C130.296 35.524 131.172 35.756 132.156 35.756ZM144.307 36.5V15.836H145.579V25.964C145.883 25.38 146.383 24.88 147.079 24.464C147.783 24.04 148.663 23.828 149.719 23.828C150.671 23.828 151.487 24.024 152.167 24.416C152.847 24.8 153.367 25.368 153.727 26.12C154.087 26.864 154.267 27.776 154.267 28.856V36.5H152.995V29.084C152.995 27.724 152.679 26.684 152.047 25.964C151.423 25.244 150.539 24.884 149.395 24.884C148.595 24.884 147.911 25.048 147.343 25.376C146.775 25.696 146.339 26.116 146.035 26.636C145.731 27.156 145.579 27.712 145.579 28.304V36.5H144.307ZM162.524 36.884C161.676 36.884 161.02 36.596 160.556 36.02C160.1 35.436 159.872 34.616 159.872 33.56V25.172H158.708V24.212H159.872V19.628H161.144V24.212H164.288V25.172H161.144V33.5C161.144 34.236 161.284 34.8 161.564 35.192C161.844 35.576 162.244 35.768 162.764 35.768C163.268 35.768 163.696 35.632 164.048 35.36L164.372 36.38C164.14 36.532 163.86 36.652 163.532 36.74C163.204 36.836 162.868 36.884 162.524 36.884Z" fill="#181818"/>
</svg>
